<?xml version="1.0" standalone="no"?>
<!DOCTYPE svg PUBLIC "-//W3C//DTD SVG 20010904//EN"
 "http://www.w3.org/TR/2001/REC-SVG-20010904/DTD/svg10.dtd">
<svg version="1.0" xmlns="http://www.w3.org/2000/svg"
 width="512.000000pt" height="512.000000pt" viewBox="0 0 512.000000 512.000000"
 preserveAspectRatio="xMidYMid meet">
<metadata>
Created by potrace 1.14, written by Peter Selinger 2001-2017
</metadata>
<g transform="translate(0.000000,512.000000) scale(0.100000,-0.100000)"
fill="#000000" stroke="none">
<path d="M1378 5084 c-3 -2 -74 -5 -159 -8 -294 -8 -502 -66 -701 -198 -127
-84 -277 -257 -351 -403 -26 -52 -73 -182 -81 -225 -2 -14 -9 -47 -15 -75 -19
-92 -23 -139 -28 -310 -5 -205 -5 -232 0 -267 2 -16 1 -28 -3 -28 -9 0 -6 -57
3 -66 3 -3 3 -16 -1 -28 -9 -25 -8 -217 1 -240 4 -9 3 -16 -1 -16 -8 0 -8
-187 0 -196 4 -3 3 -18 -1 -32 -6 -23 -7 -97 -1 -97 1 0 3 -10 4 -22 2 -13 0
-23 -4 -23 -4 0 -7 -13 -6 -30 1 -16 4 -30 7 -30 4 0 3 -16 -1 -36 -5 -19 -5
-47 0 -62 4 -15 3 -37 -1 -50 -6 -16 -5 -21 3 -16 6 4 8 3 4 -4 -10 -16 -14
-72 -6 -72 4 0 4 -16 0 -36 -5 -20 -5 -46 -1 -57 4 -12 5 -35 1 -52 -4 -17 -5
-39 -3 -50 6 -34 8 -95 3 -95 -3 0 -4 -19 -2 -42 4 -54 4 -76 3 -108 -1 -14
-1 -34 -1 -45 0 -11 1 -40 0 -65 0 -25 2 -57 4 -72 2 -16 -1 -28 -6 -28 -5 0
-6 -5 -3 -11 4 -6 6 -41 5 -77 -1 -37 -1 -73 -1 -79 1 -7 1 -31 1 -53 0 -22 0
-48 0 -57 0 -10 0 -36 -1 -58 -1 -22 -1 -44 -1 -50 1 -5 3 -109 5 -231 2 -121
6 -225 9 -230 3 -5 8 -31 12 -59 3 -27 8 -60 11 -73 3 -12 7 -30 9 -40 25
-110 112 -299 182 -392 84 -111 194 -210 319 -286 110 -66 284 -125 415 -139
25 -3 56 -8 70 -11 14 -3 147 -7 295 -9 149 -2 284 -4 300 -5 28 0 329 -1 350
-1 6 0 33 1 60 1 28 0 73 1 100 1 28 1 56 1 63 0 6 0 19 -1 27 -1 8 0 30 0 48
0 17 0 57 0 87 1 30 0 62 0 70 -1 8 0 26 0 40 1 14 1 36 1 50 0 14 0 50 -1 80
0 30 0 62 0 70 -1 8 0 26 0 40 1 14 1 36 1 50 0 71 -3 142 -1 150 4 5 3 11 1
15 -4 3 -6 16 -7 28 -3 12 4 38 6 57 4 51 -3 133 -2 141 4 4 2 10 0 14 -5 3
-6 16 -7 28 -3 12 4 38 6 57 5 78 -6 741 3 760 10 8 3 38 8 65 11 28 3 61 8
75 11 14 4 36 8 50 11 87 17 340 125 340 146 0 4 5 8 11 8 36 0 226 188 293
289 39 60 79 128 81 141 1 3 9 23 18 44 21 48 45 117 51 148 3 13 12 59 21
103 15 70 31 397 25 500 -1 17 -2 35 -1 40 0 8 1 103 0 168 0 9 0 46 0 82 0
36 0 72 0 80 0 8 0 332 0 720 0 388 0 712 0 720 0 8 0 44 0 80 0 36 0 73 1 83
0 9 0 44 -1 77 0 33 0 67 1 75 2 123 -8 485 -15 520 -5 30 -24 124 -31 155
-11 52 -95 253 -117 280 -4 6 -22 33 -39 60 -69 108 -255 272 -386 339 -49 25
-202 83 -237 90 -16 3 -50 10 -75 15 -99 20 -275 33 -435 31 -66 -1 -65 -1
-102 3 -18 2 -33 0 -33 -5 0 -4 -6 -5 -12 -3 -27 9 -99 12 -104 3 -3 -4 -10
-5 -16 -2 -18 12 -587 10 -592 -1 -3 -7 -7 -7 -13 0 -9 12 -212 13 -230 2 -7
-5 -13 -5 -13 0 0 4 -50 8 -110 8 -61 0 -110 -4 -110 -8 0 -5 -5 -5 -12 -1
-16 10 -388 11 -388 1 0 -5 -5 -5 -12 -1 -16 10 -169 11 -190 2 -9 -5 -19 -5
-21 -1 -3 5 -47 7 -99 5 -92 -2 -125 -2 -183 2 -16 1 -42 -1 -57 -5 -14 -4
-29 -4 -33 -1 -7 7 -32 11 -37 6z"/>
</g>
</svg>
